<svg width="211" height="76" viewBox="0 0 211 76" fill="none" xmlns="http://www.w3.org/2000/svg">
<path d="M50.3165 32.9805C49.2853 33.4102 48.2469 33.7969 47.2013 34.1406C46.1557 34.4844 45.0743 34.778 43.9572 35.0215C42.84 35.2793 41.6583 35.4727 40.4122 35.6016C39.1805 35.7305 37.8556 35.7949 36.4376 35.7949C33.4298 35.7949 30.6583 35.4727 28.1232 34.8281C25.6023 34.1836 23.4253 33.2168 21.5919 31.9277C19.7729 30.6243 18.3549 29.0059 17.338 27.0723C16.3211 25.1243 15.8126 22.8542 15.8126 20.2617C15.8126 17.6693 16.3211 15.4062 17.338 13.4727C18.3549 11.5247 19.7729 9.90625 21.5919 8.61719C23.4253 7.3138 25.6023 6.33984 28.1232 5.69531C30.6583 5.05078 33.4298 4.72852 36.4376 4.72852C37.8556 4.72852 39.1805 4.79297 40.4122 4.92188C41.6583 5.05078 42.84 5.24414 43.9572 5.50195C45.0743 5.74544 46.1557 6.03906 47.2013 6.38281C48.2469 6.72656 49.2853 7.11328 50.3165 7.54297V14.7188C49.5001 14.2747 48.6407 13.8379 47.7384 13.4082C46.8361 12.9642 45.8406 12.5703 44.7521 12.2266C43.6635 11.8685 42.4676 11.582 41.1642 11.3672C39.8608 11.138 38.3927 11.0234 36.7599 11.0234C34.2534 11.0234 32.1694 11.2812 30.5079 11.7969C28.8608 12.3125 27.5431 13 26.5548 13.8594C25.5665 14.7188 24.8719 15.707 24.4708 16.8242C24.0698 17.9271 23.8693 19.0729 23.8693 20.2617C23.8693 21.0495 23.9552 21.8301 24.1271 22.6035C24.299 23.3626 24.5854 24.0859 24.9865 24.7734C25.3875 25.4466 25.9103 26.0697 26.5548 26.6426C27.1993 27.2155 28.0014 27.7096 28.9611 28.125C29.9207 28.5404 31.0379 28.8698 32.3126 29.1133C33.6017 29.3424 35.0841 29.457 36.7599 29.457C38.3927 29.457 39.8608 29.3568 41.1642 29.1562C42.4676 28.9414 43.6635 28.6621 44.7521 28.3184C45.8406 27.9746 46.8361 27.5879 47.7384 27.1582C48.6407 26.7142 49.5001 26.263 50.3165 25.8047V32.9805ZM92.5978 25.0527C92.5978 26.528 92.2325 27.9173 91.5021 29.2207C90.7716 30.5241 89.6759 31.6628 88.215 32.6367C86.754 33.6107 84.9279 34.3841 82.7365 34.957C80.5594 35.5156 78.0099 35.7949 75.088 35.7949C72.1661 35.7949 69.6023 35.5156 67.3966 34.957C65.2052 34.3841 63.379 33.6107 61.9181 32.6367C60.4572 31.6628 59.3615 30.5241 58.631 29.2207C57.9005 27.9173 57.5353 26.528 57.5353 25.0527V5.48047H65.4845V22.1953C65.4845 23.1836 65.6062 24.1217 65.8497 25.0098C66.1075 25.8835 66.5802 26.6497 67.2677 27.3086C67.9695 27.9674 68.9435 28.4902 70.1896 28.877C71.45 29.2637 73.0828 29.457 75.088 29.457C77.0789 29.457 78.6974 29.2637 79.9435 28.877C81.1896 28.4902 82.1564 27.9674 82.8439 27.3086C83.5457 26.6497 84.0184 25.8835 84.2618 25.0098C84.5053 24.1217 84.6271 23.1836 84.6271 22.1953V5.48047H92.5978V25.0527ZM134.793 15.5566C134.793 17.0319 134.578 18.3926 134.149 19.6387C133.719 20.8704 133.024 21.9375 132.065 22.8398C131.119 23.7279 129.887 24.4225 128.369 24.9238C126.851 25.4251 125.003 25.6758 122.826 25.6758H109.592V35H101.621V5.48047H122.826C125.003 5.48047 126.851 5.73112 128.369 6.23242C129.887 6.7194 131.119 7.41406 132.065 8.31641C133.024 9.20443 133.719 10.2643 134.149 11.4961C134.578 12.7279 134.793 14.0814 134.793 15.5566ZM126.736 15.6855C126.736 14.998 126.636 14.4108 126.436 13.9238C126.249 13.4225 125.934 13.0143 125.49 12.6992C125.046 12.3841 124.466 12.1549 123.75 12.0117C123.034 11.8542 122.153 11.7754 121.108 11.7754H109.592V19.3809H121.108C122.153 19.3809 123.034 19.3236 123.75 19.209C124.466 19.0801 125.046 18.8724 125.49 18.5859C125.934 18.2852 126.249 17.8984 126.436 17.4258C126.636 16.9531 126.736 16.373 126.736 15.6855ZM141.41 35V5.48047H149.381V35H141.41ZM194.799 20.2188C194.799 22.1094 194.591 23.7923 194.176 25.2676C193.761 26.7285 193.173 28.0033 192.414 29.0918C191.669 30.1803 190.767 31.1042 189.707 31.8633C188.662 32.6224 187.494 33.2311 186.205 33.6895C184.916 34.1478 183.527 34.4844 182.037 34.6992C180.548 34.8997 178.994 35 177.375 35H158.641V5.48047H177.332C178.951 5.48047 180.505 5.58789 181.994 5.80273C183.484 6.00326 184.873 6.33268 186.162 6.79102C187.466 7.24935 188.647 7.85807 189.707 8.61719C190.767 9.36198 191.669 10.2858 192.414 11.3887C193.173 12.4772 193.761 13.752 194.176 15.2129C194.591 16.6738 194.799 18.3424 194.799 20.2188ZM186.764 20.2188C186.764 18.8008 186.578 17.569 186.205 16.5234C185.847 15.4779 185.26 14.6185 184.443 13.9453C183.641 13.2578 182.589 12.7493 181.285 12.4199C179.982 12.0762 178.392 11.9043 176.516 11.9043H166.611V28.5762H176.516C178.392 28.5762 179.982 28.4115 181.285 28.082C182.589 27.7383 183.641 27.2227 184.443 26.5352C185.26 25.8333 185.847 24.9596 186.205 23.9141C186.578 22.8685 186.764 21.6367 186.764 20.2188Z" fill="black"/>
<path d="M66.8282 70V52.3853H73.0538C74.2013 52.3853 75.1941 52.5968 76.0323 53.02C76.8787 53.4432 77.5297 54.0413 77.9855 54.8145C78.4493 55.5794 78.6813 56.4868 78.6813 57.5366V57.561C78.6813 58.798 78.3435 59.856 77.6681 60.7349C77.0008 61.6138 76.0812 62.2078 74.9093 62.5171L79.1818 70H77.2408L73.1881 62.7734C73.1393 62.7816 73.0782 62.7856 73.005 62.7856C72.9399 62.7856 72.8789 62.7856 72.8219 62.7856H68.4762V70H66.8282ZM68.4762 61.3086H72.9196C74.1972 61.3086 75.1901 60.9831 75.8981 60.332C76.6142 59.681 76.9723 58.7695 76.9723 57.5977V57.5732C76.9723 56.4095 76.6061 55.5021 75.8737 54.8511C75.1412 54.2 74.1321 53.8745 72.8463 53.8745H68.4762V61.3086ZM86.213 70.2319C85.0249 70.2319 83.9954 69.9634 83.1246 69.4263C82.262 68.8892 81.5947 68.1283 81.1227 67.1436C80.6507 66.1589 80.4147 64.9951 80.4147 63.6523V63.6401C80.4147 62.3055 80.6507 61.1418 81.1227 60.1489C81.5947 59.1561 82.2539 58.387 83.1002 57.8418C83.9466 57.2884 84.9394 57.0117 86.0787 57.0117C87.2181 57.0117 88.2028 57.2762 89.0328 57.8052C89.8629 58.3341 90.5017 59.0788 90.9493 60.0391C91.4051 60.9912 91.6329 62.1021 91.6329 63.3716V64.0186H81.2325V62.7368H90.8517L90.0338 63.8843V63.2861C90.0338 62.2363 89.8629 61.3534 89.5211 60.6372C89.1875 59.9129 88.7236 59.3677 88.1295 59.0015C87.5354 58.6353 86.8478 58.4521 86.0665 58.4521C85.2934 58.4521 84.6017 58.6434 83.9913 59.0259C83.3891 59.4002 82.913 59.9495 82.5631 60.6738C82.2213 61.39 82.0504 62.2607 82.0504 63.2861V63.8843C82.0504 64.9259 82.2213 65.813 82.5631 66.5454C82.913 67.2697 83.4013 67.8271 84.028 68.2178C84.6627 68.6003 85.4033 68.7915 86.2496 68.7915C86.8763 68.7915 87.4337 68.6979 87.922 68.5107C88.4103 68.3154 88.8172 68.0469 89.1427 67.7051C89.4764 67.3633 89.7124 66.9686 89.8507 66.521L89.8751 66.4111H91.4742L91.4498 66.5332C91.3359 67.0622 91.1284 67.5505 90.8273 67.998C90.5343 68.4456 90.1559 68.8403 89.692 69.1821C89.2363 69.5158 88.7155 69.7762 88.1295 69.9634C87.5436 70.1424 86.9047 70.2319 86.213 70.2319ZM99.2501 74.5166C98.2491 74.5166 97.3743 74.3701 96.6256 74.0771C95.8851 73.7923 95.2869 73.4017 94.8312 72.9053C94.3754 72.417 94.0743 71.8717 93.9279 71.2695L93.9034 71.1841H95.5392L95.5758 71.2695C95.7793 71.7904 96.1984 72.2217 96.8331 72.5635C97.4679 72.9053 98.2695 73.0762 99.2379 73.0762C100.467 73.0762 101.423 72.7588 102.107 72.124C102.79 71.4974 103.132 70.6429 103.132 69.5605V67.229H103.071C102.843 67.7824 102.518 68.2747 102.094 68.7061C101.679 69.1292 101.187 69.4629 100.617 69.707C100.048 69.943 99.421 70.061 98.7374 70.061C97.6632 70.061 96.7192 69.7925 95.9054 69.2554C95.0997 68.7101 94.469 67.9492 94.0133 66.9727C93.5576 65.988 93.3297 64.8446 93.3297 63.5425V63.5181C93.3297 62.216 93.5576 61.0807 94.0133 60.1123C94.4772 59.1357 95.116 58.3748 95.9298 57.8296C96.7436 57.2843 97.6876 57.0117 98.7618 57.0117C99.4454 57.0117 100.068 57.1379 100.63 57.3901C101.191 57.6424 101.679 57.9883 102.094 58.4277C102.518 58.8672 102.847 59.3677 103.083 59.9292H103.132V57.2437H104.743V69.6948C104.743 70.6714 104.519 71.5177 104.072 72.2339C103.624 72.9582 102.99 73.5197 102.168 73.9185C101.346 74.3172 100.373 74.5166 99.2501 74.5166ZM99.0548 68.6328C99.8686 68.6328 100.581 68.4212 101.191 67.998C101.801 67.5667 102.277 66.9686 102.619 66.2036C102.961 65.4386 103.132 64.5516 103.132 63.5425V63.5303C103.132 62.513 102.961 61.626 102.619 60.8691C102.277 60.1042 101.797 59.5101 101.179 59.0869C100.568 58.6637 99.8605 58.4521 99.0548 58.4521C98.2329 58.4521 97.5127 58.6637 96.8942 59.0869C96.2838 59.502 95.8118 60.092 95.4781 60.8569C95.1445 61.6138 94.9777 62.5008 94.9777 63.5181V63.5425C94.9777 64.5679 95.1445 65.4631 95.4781 66.228C95.8118 66.9849 96.2838 67.5749 96.8942 67.998C97.5127 68.4212 98.2329 68.6328 99.0548 68.6328ZM112.116 70.2197C111.172 70.2197 110.363 70.0285 109.687 69.646C109.02 69.2635 108.507 68.7142 108.149 67.998C107.791 67.2738 107.612 66.4152 107.612 65.4224V57.2437H109.223V65.1416C109.223 66.3298 109.508 67.2371 110.078 67.8638C110.647 68.4823 111.477 68.7915 112.568 68.7915C113.13 68.7915 113.638 68.6979 114.094 68.5107C114.55 68.3154 114.94 68.0428 115.266 67.6929C115.599 67.3429 115.852 66.9238 116.023 66.4355C116.202 65.9391 116.291 65.3939 116.291 64.7998V57.2437H117.902V70H116.291V67.8149H116.23C116.019 68.2788 115.721 68.6938 115.339 69.0601C114.957 69.4181 114.493 69.703 113.947 69.9146C113.41 70.118 112.8 70.2197 112.116 70.2197ZM120.991 70V52.2754H122.59V70H120.991ZM129.426 70.2319C128.588 70.2319 127.851 70.0773 127.216 69.7681C126.582 69.4507 126.085 69.0112 125.727 68.4497C125.369 67.88 125.19 67.2209 125.19 66.4722V66.4478C125.19 65.7153 125.365 65.0887 125.715 64.5679C126.073 64.0389 126.594 63.6239 127.277 63.3228C127.961 63.0135 128.791 62.8263 129.768 62.7612L134.553 62.4561V63.7378L129.963 64.043C128.954 64.1081 128.177 64.3481 127.631 64.7632C127.094 65.1782 126.826 65.7397 126.826 66.4478V66.46C126.826 67.168 127.094 67.7376 127.631 68.1689C128.177 68.6003 128.881 68.8159 129.743 68.8159C130.492 68.8159 131.167 68.6572 131.77 68.3398C132.372 68.0225 132.852 67.5911 133.21 67.0459C133.568 66.5007 133.747 65.8903 133.747 65.2148V61.394C133.747 60.4744 133.47 59.7542 132.917 59.2334C132.364 58.7126 131.587 58.4521 130.586 58.4521C129.666 58.4521 128.913 58.6556 128.327 59.0625C127.749 59.4694 127.387 60.0309 127.241 60.7471L127.216 60.8569H125.654L125.678 60.7227C125.76 59.9902 126.008 59.3473 126.423 58.7939C126.846 58.2406 127.412 57.8052 128.12 57.4878C128.836 57.1704 129.666 57.0117 130.61 57.0117C131.587 57.0117 132.429 57.1867 133.137 57.5366C133.845 57.8784 134.39 58.3667 134.773 59.0015C135.163 59.6362 135.359 60.3931 135.359 61.272V70H133.747V67.6807H133.686C133.458 68.1852 133.129 68.6328 132.697 69.0234C132.266 69.4059 131.77 69.703 131.208 69.9146C130.655 70.1261 130.061 70.2319 129.426 70.2319ZM138.252 70V57.2437H139.863V59.5142H139.924C140.152 58.7329 140.542 58.1226 141.096 57.6831C141.649 57.2355 142.321 57.0117 143.11 57.0117C143.33 57.0117 143.529 57.028 143.708 57.0605C143.887 57.0931 144.03 57.1257 144.135 57.1582V58.7329C144.013 58.6759 143.846 58.6312 143.635 58.5986C143.423 58.5661 143.179 58.5498 142.902 58.5498C142.292 58.5498 141.759 58.6963 141.303 58.9893C140.848 59.2822 140.494 59.6932 140.241 60.2222C139.989 60.7511 139.863 61.3737 139.863 62.0898V70H138.252Z" fill="black"/>
</svg>
